<?xml version="1.0"?>
<svg xmlns="http://www.w3.org/2000/svg" width="880" height="300" viewBox="0 0 880 300" role="img" aria-label="Realtime tenants stayed sub-second; standard burst waited 26 seconds">
  <style>text{font-family:system-ui,-apple-system,sans-serif}</style>
  <rect width="880" height="300" fill="#f7f8fa"/>
  <rect x="20" y="10" width="840" height="280" fill="#ffffff" stroke="#dde3ea" rx="6"/>
  <rect x="20" y="10" width="840" height="4" fill="#087f72" rx="6"/>
  <text x="38.0" y="36.0" fill="#15202b" font-size="15" font-weight="750" text-anchor="start">Open-loop consolidation on one shared replica</text>
  <text x="38.0" y="52.0" fill="#5f6c7b" font-size="10" font-weight="650" text-anchor="start">Median surge p95 TTFT &#xB7; three matched repeats</text>
  <rect x="38" y="72" width="350" height="172" fill="#f7f8fa" stroke="#dde3ea" rx="6"/>
  <text x="54.0" y="90.0" fill="#5f6c7b" font-size="9" font-weight="800" text-anchor="start">REALTIME TENANTS</text>
  <text x="54.0" y="104.0" fill="#087f72" font-size="11" font-weight="650" text-anchor="start">Still sub-second under the surge</text>
  <line x1="54" y1="118" x2="380" y2="118" stroke="#e8ecf0"/>
  <line x1="54" y1="218" x2="380" y2="218" stroke="#dde3ea"/>
  <text x="48.0" y="221.0" fill="#5f6c7b" font-size="8" font-weight="550" text-anchor="end">0</text>
  <text x="48.0" y="122.0" fill="#5f6c7b" font-size="8" font-weight="550" text-anchor="end">650 ms</text>
  <rect x="108" y="139.7" width="76" height="78.3" rx="5" fill="#087f72"/>
  <text x="146.0" y="133.7" fill="#15202b" font-size="12" font-weight="800" text-anchor="middle">509 ms</text>
  <text x="146.0" y="234.0" fill="#5f6c7b" font-size="10" font-weight="650" text-anchor="middle">Tenant A</text>
  <rect x="228" y="132.5" width="76" height="85.5" rx="5" fill="#087f72"/>
  <text x="266.0" y="126.5" fill="#15202b" font-size="12" font-weight="800" text-anchor="middle">556 ms</text>
  <text x="266.0" y="234.0" fill="#5f6c7b" font-size="10" font-weight="650" text-anchor="middle">Tenant B</text>
  <rect x="404" y="72" width="416" height="172" fill="#fff8f0" stroke="#c56a00" stroke-width="1.5" rx="6"/>
  <text x="420.0" y="90.0" fill="#c56a00" font-size="9" font-weight="800" text-anchor="start">STANDARD BURST</text>
  <text x="420.0" y="104.0" fill="#5f6c7b" font-size="11" font-weight="650" text-anchor="start">Lower priority absorbed the wait</text>
  <rect x="562" y="118" width="104" height="100" rx="6" fill="#c56a00"/>
  <text x="618.0" y="154.0" fill="#ffffff" font-size="26" font-weight="800" text-anchor="middle">25.9 s</text>
  <text x="618.0" y="176.0" fill="#ffffff" font-size="10" font-weight="600" text-anchor="middle">25,892 ms</text>
  <text x="618.0" y="234.0" fill="#5f6c7b" font-size="10" font-weight="650" text-anchor="middle">Standard burst</text>
  <circle cx="392" cy="152" r="22" fill="#15202b"/>
  <text x="392.0" y="157.0" fill="#ffffff" font-size="15" font-weight="800" text-anchor="middle">51&#xD7;</text>
  <rect x="38" y="252" width="804" height="30" rx="5" fill="#087f72" opacity="0.14"/>
  <text x="52.0" y="271.0" fill="#087f72" font-size="11" font-weight="650" text-anchor="start">Realtime ~0.5 s &#xB7; burst ~26 s on the same GPU &#x2014; tenants share the pool, policy separates who waits</text>
</svg>
