<svg xmlns="http://www.w3.org/2000/svg" width="880" height="410" viewBox="0 0 880 410" role="img" aria-label="One shared GPU served two high-priority tenants during a lower-priority traffic surge. Median surge p95 time to first token was 509 milliseconds for tenant A, 556 milliseconds for tenant B, and 25.9 seconds for the lower-priority burst."><style>text{font-family:system-ui,-apple-system,sans-serif}</style><rect width="880" height="410" fill="#ffffff"/><rect x="10" y="10" width="860" height="390" rx="6" fill="#ffffff" stroke="#dde3ea"/><text x="32.0" y="38.0" fill="#15202b" font-size="17" font-weight="780" text-anchor="start">One pool served both high-priority tenants through the burst</text><text x="78.0" y="60.0" fill="#5f6c7b" font-size="10" font-weight="700" text-anchor="start">Traffic rate (requests/s)</text><rect x="281.7" y="78.0" width="382.0" height="140.0" fill="#c56a00" opacity="0.08"/><text x="472.7" y="94.0" fill="#c56a00" font-size="9" font-weight="700" text-anchor="middle">lower-priority surge</text><line x1="78.0" y1="218.0" x2="842.0" y2="218.0" stroke="#e7ebef"/><text x="68.0" y="221.0" fill="#5f6c7b" font-size="8" font-weight="600" text-anchor="end">0</text><line x1="78.0" y1="148.0" x2="842.0" y2="148.0" stroke="#e7ebef"/><text x="68.0" y="151.0" fill="#5f6c7b" font-size="8" font-weight="600" text-anchor="end">30</text><line x1="78.0" y1="78.0" x2="842.0" y2="78.0" stroke="#e7ebef"/><text x="68.0" y="81.0" fill="#5f6c7b" font-size="8" font-weight="600" text-anchor="end">60</text><text x="78.0" y="236.0" fill="#5f6c7b" font-size="9" font-weight="600" text-anchor="middle">60 s</text><text x="460.0" y="236.0" fill="#5f6c7b" font-size="9" font-weight="600" text-anchor="middle">135 s</text><text x="842.0" y="236.0" fill="#5f6c7b" font-size="9" font-weight="600" text-anchor="middle">210 s</text><polyline points="103.5,206.8 154.4,204.2 205.3,204.2 256.3,204.5 307.2,205.6 358.1,202.8 409.1,199.6 460.0,206.6 510.9,204.7 561.9,203.8 612.8,203.1 663.7,207.3 714.7,205.9 765.6,202.8 816.5,201.4 867.5,206.1" fill="none" stroke="#087f72" stroke-width="3"/><line x1="82" y1="258" x2="100" y2="258" stroke="#087f72" stroke-width="3"/><text x="108.0" y="262.0" fill="#5f6c7b" font-size="10" font-weight="650" text-anchor="start">High-priority tenant A</text><polyline points="103.5,204.7 154.4,203.5 205.3,201.9 256.3,204.5 307.2,206.3 358.1,203.1 409.1,203.1 460.0,203.5 510.9,205.4 561.9,205.9 612.8,202.4 663.7,204.5 714.7,204.9 765.6,205.9 816.5,201.7 867.5,203.3" fill="none" stroke="#2d6cdf" stroke-width="3"/><line x1="327" y1="258" x2="345" y2="258" stroke="#2d6cdf" stroke-width="3"/><text x="353.0" y="262.0" fill="#5f6c7b" font-size="10" font-weight="650" text-anchor="start">High-priority tenant B</text><polyline points="103.5,201.9 154.4,200.7 205.3,183.2 256.3,96.0 307.2,90.8 358.1,124.0 409.1,91.3 460.0,103.9 510.9,116.3 561.9,85.2 612.8,103.2 663.7,126.1 714.7,87.1 765.6,188.8 816.5,197.5 867.5,197.0" fill="none" stroke="#c56a00" stroke-width="3"/><line x1="572" y1="258" x2="590" y2="258" stroke="#c56a00" stroke-width="3"/><text x="598.0" y="262.0" fill="#5f6c7b" font-size="10" font-weight="650" text-anchor="start">Lower-priority burst</text><line x1="32" y1="280" x2="848" y2="280" stroke="#dde3ea"/><text x="32.0" y="304.0" fill="#5f6c7b" font-size="10" font-weight="700" text-anchor="start">Median surge p95 TTFT</text><line x1="242.0" y1="318.0" x2="242.0" y2="389.0" stroke="#e7ebef"/><text x="242.0" y="314.0" fill="#5f6c7b" font-size="8" font-weight="600" text-anchor="middle">0.3 s</text><line x1="380.0" y1="318.0" x2="380.0" y2="389.0" stroke="#e7ebef"/><text x="380.0" y="314.0" fill="#5f6c7b" font-size="8" font-weight="600" text-anchor="middle">1 s</text><line x1="506.0" y1="318.0" x2="506.0" y2="389.0" stroke="#e7ebef"/><text x="506.0" y="314.0" fill="#5f6c7b" font-size="8" font-weight="600" text-anchor="middle">3 s</text><line x1="644.0" y1="318.0" x2="644.0" y2="389.0" stroke="#e7ebef"/><text x="644.0" y="314.0" fill="#5f6c7b" font-size="8" font-weight="600" text-anchor="middle">10 s</text><line x1="770.0" y1="318.0" x2="770.0" y2="389.0" stroke="#e7ebef"/><text x="770.0" y="314.0" fill="#5f6c7b" font-size="8" font-weight="600" text-anchor="middle">30 s</text><text x="32.0" y="340.0" fill="#15202b" font-size="10" font-weight="720" text-anchor="start">High priority A</text><line x1="242.0" y1="336.0" x2="770.0" y2="336.0" stroke="#edf1f4" stroke-width="10" stroke-linecap="round"/><line x1="242.0" y1="336.0" x2="302.6" y2="336.0" stroke="#087f72" stroke-width="10" stroke-linecap="round"/><text x="838.0" y="340.0" fill="#087f72" font-size="10" font-weight="800" text-anchor="end">509 ms</text><text x="32.0" y="365.0" fill="#15202b" font-size="10" font-weight="720" text-anchor="start">High priority B</text><line x1="242.0" y1="361.0" x2="770.0" y2="361.0" stroke="#edf1f4" stroke-width="10" stroke-linecap="round"/><line x1="242.0" y1="361.0" x2="312.7" y2="361.0" stroke="#2d6cdf" stroke-width="10" stroke-linecap="round"/><text x="838.0" y="365.0" fill="#2d6cdf" font-size="10" font-weight="800" text-anchor="end">556 ms</text><text x="32.0" y="390.0" fill="#15202b" font-size="10" font-weight="720" text-anchor="start">Lower-priority burst</text><line x1="242.0" y1="386.0" x2="770.0" y2="386.0" stroke="#edf1f4" stroke-width="10" stroke-linecap="round"/><line x1="242.0" y1="386.0" x2="753.1" y2="386.0" stroke="#c56a00" stroke-width="10" stroke-linecap="round"/><text x="838.0" y="390.0" fill="#c56a00" font-size="10" font-weight="800" text-anchor="end">25.9 s</text></svg>
