<svg xmlns="http://www.w3.org/2000/svg" width="880" height="260" viewBox="0 0 880 260" role="img" aria-label="Reserved capacity and reserved capacity with eviction kept real-time p95 time to first token near the real-time-only reference while unprotected batch raised latency"><style>text{font-family:system-ui,-apple-system,sans-serif}</style><rect x="1" y="1" width="878" height="258" rx="6" fill="#ffffff" stroke="#dde3ea"/><text x="28.0" y="30.0" fill="#15202b" font-size="15" font-weight="780" text-anchor="start">Reserved capacity kept real-time latency near its reference</text><text x="28.0" y="52.0" fill="#5f6c7b" font-size="9" font-weight="700" text-anchor="start">Real-time p95 TTFT (milliseconds)</text><rect x="92.0" y="123.2" width="738.0" height="6.6" rx="3" fill="#087f72" opacity="0.08"/><line x1="92.0" y1="200.0" x2="830.0" y2="200.0" stroke="#e4e9ee"/><text x="78.0" y="203.0" fill="#5f6c7b" font-size="8" font-weight="650" text-anchor="end">0</text><line x1="92.0" y1="157.3" x2="830.0" y2="157.3" stroke="#e4e9ee"/><text x="78.0" y="160.3" fill="#5f6c7b" font-size="8" font-weight="650" text-anchor="end">200</text><line x1="92.0" y1="114.7" x2="830.0" y2="114.7" stroke="#e4e9ee"/><text x="78.0" y="117.7" fill="#5f6c7b" font-size="8" font-weight="650" text-anchor="end">400</text><line x1="92.0" y1="72.0" x2="830.0" y2="72.0" stroke="#e4e9ee"/><text x="78.0" y="75.0" fill="#5f6c7b" font-size="8" font-weight="650" text-anchor="end">600</text><rect x="126" y="127.0" width="80" height="73.0" rx="5" fill="#7a8794" opacity="0.86"/><text x="166.0" y="119.0" fill="#7a8794" font-size="10" font-weight="800" text-anchor="middle">342 ms</text><text x="166.0" y="232.0" fill="#15202b" font-size="9" font-weight="700" text-anchor="middle">Real-time only</text><rect x="312" y="80.4" width="80" height="119.6" rx="5" fill="#b83232" opacity="0.86"/><text x="352.0" y="72.4" fill="#b83232" font-size="10" font-weight="800" text-anchor="middle">561 ms</text><text x="352.0" y="232.0" fill="#15202b" font-size="9" font-weight="700" text-anchor="middle">Batch, no protection</text><rect x="498" y="127.2" width="80" height="72.8" rx="5" fill="#087f72" opacity="0.86"/><text x="538.0" y="119.2" fill="#087f72" font-size="10" font-weight="800" text-anchor="middle">341 ms</text><text x="538.0" y="232.0" fill="#15202b" font-size="9" font-weight="700" text-anchor="middle">Reserved capacity</text><rect x="684" y="125.8" width="80" height="74.2" rx="5" fill="#087f72" opacity="0.86"/><text x="724.0" y="117.8" fill="#087f72" font-size="10" font-weight="800" text-anchor="middle">348 ms</text><text x="724.0" y="232.0" fill="#15202b" font-size="9" font-weight="700" text-anchor="middle">Reserved + eviction</text></svg>
