<svg xmlns="http://www.w3.org/2000/svg" viewBox="0 0 1200 540" role="img" aria-label="Anatomy of the gate: flow queues, the saturation score, running slots and the waiting queue"><rect width="1200" height="540" fill="#ffffff"/><text x="20" y="30" font-family="-apple-system,BlinkMacSystemFont,Segoe UI,Helvetica,Arial,sans-serif" font-size="18" font-weight="800" fill="#151515" text-anchor="start">What the gate reads, and what a slot is</text><text x="20" y="52" font-family="-apple-system,BlinkMacSystemFont,Segoe UI,Helvetica,Arial,sans-serif" font-size="12.5" font-weight="400" fill="#6b6b6b" text-anchor="start">Flow control lives in the endpoint picker. Slots and the waiting queue live in vLLM. The gate is the endpoint picker reading vLLM and deciding whether to release more work.</text><text x="24" y="96" font-family="-apple-system,BlinkMacSystemFont,Segoe UI,Helvetica,Arial,sans-serif" font-size="10" font-weight="700" fill="#8a8a8a" text-anchor="start">ENDPOINT PICKER</text><rect x="20" y="106" width="230" height="200" rx="10" fill="#fbfbfb" stroke="#e6e6e6"/><text x="36" y="136" font-family="-apple-system,BlinkMacSystemFont,Segoe UI,Helvetica,Arial,sans-serif" font-size="11.5" font-weight="600" fill="#151515" text-anchor="start">Tenant A</text><rect x="36" y="144" width="18" height="16" rx="3" fill="#1c78d8"/><rect x="58" y="144" width="18" height="16" rx="3" fill="#1c78d8"/><rect x="80" y="144" width="18" height="16" rx="3" fill="#1c78d8"/><rect x="102" y="144" width="18" height="16" rx="3" fill="#1c78d8"/><rect x="124" y="144" width="18" height="16" rx="3" fill="#1c78d8"/><rect x="146" y="144" width="18" height="16" rx="3" fill="#1c78d8"/><rect x="168" y="144" width="18" height="16" rx="3" fill="#1c78d8"/><rect x="190" y="144" width="18" height="16" rx="3" fill="#eeeeee"/><text x="36" y="192" font-family="-apple-system,BlinkMacSystemFont,Segoe UI,Helvetica,Arial,sans-serif" font-size="11.5" font-weight="600" fill="#151515" text-anchor="start">Tenant B</text><rect x="36" y="200" width="18" height="16" rx="3" fill="#1f8a5f"/><rect x="58" y="200" width="18" height="16" rx="3" fill="#eeeeee"/><rect x="80" y="200" width="18" height="16" rx="3" fill="#eeeeee"/><rect x="102" y="200" width="18" height="16" rx="3" fill="#eeeeee"/><rect x="124" y="200" width="18" height="16" rx="3" fill="#eeeeee"/><rect x="146" y="200" width="18" height="16" rx="3" fill="#eeeeee"/><rect x="168" y="200" width="18" height="16" rx="3" fill="#eeeeee"/><rect x="190" y="200" width="18" height="16" rx="3" fill="#eeeeee"/><text x="36" y="248" font-family="-apple-system,BlinkMacSystemFont,Segoe UI,Helvetica,Arial,sans-serif" font-size="11.5" font-weight="600" fill="#151515" text-anchor="start">Tenant C</text><rect x="36" y="256" width="18" height="16" rx="3" fill="#d59a00"/><rect x="58" y="256" width="18" height="16" rx="3" fill="#eeeeee"/><rect x="80" y="256" width="18" height="16" rx="3" fill="#eeeeee"/><rect x="102" y="256" width="18" height="16" rx="3" fill="#eeeeee"/><rect x="124" y="256" width="18" height="16" rx="3" fill="#eeeeee"/><rect x="146" y="256" width="18" height="16" rx="3" fill="#eeeeee"/><rect x="168" y="256" width="18" height="16" rx="3" fill="#eeeeee"/><rect x="190" y="256" width="18" height="16" rx="3" fill="#eeeeee"/><text x="36" y="300" font-family="-apple-system,BlinkMacSystemFont,Segoe UI,Helvetica,Arial,sans-serif" font-size="10" font-weight="400" fill="#8a8a8a" text-anchor="start">one queue per tenant, per priority</text><rect x="278" y="150" width="96" height="112" rx="10" fill="#fff5f4" stroke="#c0392b"/><text x="326" y="196" font-family="-apple-system,BlinkMacSystemFont,Segoe UI,Helvetica,Arial,sans-serif" font-size="13" font-weight="700" fill="#c0392b" text-anchor="middle">gate</text><text x="326" y="214" font-family="-apple-system,BlinkMacSystemFont,Segoe UI,Helvetica,Arial,sans-serif" font-size="10.5" font-weight="400" fill="#c0392b" text-anchor="middle">open or</text><text x="326" y="228" font-family="-apple-system,BlinkMacSystemFont,Segoe UI,Helvetica,Arial,sans-serif" font-size="10.5" font-weight="400" fill="#c0392b" text-anchor="middle">closed</text><text x="252" y="212" font-family="-apple-system,BlinkMacSystemFont,Segoe UI,Helvetica,Arial,sans-serif" font-size="16" font-weight="400" fill="#8a8a8a" text-anchor="start">&#8594;</text><text x="384" y="212" font-family="-apple-system,BlinkMacSystemFont,Segoe UI,Helvetica,Arial,sans-serif" font-size="16" font-weight="400" fill="#8a8a8a" text-anchor="start">&#8594;</text><text x="408" y="96" font-family="-apple-system,BlinkMacSystemFont,Segoe UI,Helvetica,Arial,sans-serif" font-size="10" font-weight="700" fill="#8a8a8a" text-anchor="start">vLLM</text><rect x="404" y="106" width="500" height="200" rx="10" fill="#fbfbfb" stroke="#e6e6e6"/><text x="420" y="130" font-family="-apple-system,BlinkMacSystemFont,Segoe UI,Helvetica,Arial,sans-serif" font-size="11.5" font-weight="700" fill="#151515" text-anchor="start">Running slots, max_num_seqs 128</text><rect x="420" y="140" width="25" height="10" rx="2" fill="#1c78d8"/><rect x="449" y="140" width="25" height="10" rx="2" fill="#1c78d8"/><rect x="478" y="140" width="25" height="10" rx="2" fill="#1c78d8"/><rect x="507" y="140" width="25" height="10" rx="2" fill="#1c78d8"/><rect x="536" y="140" width="25" height="10" rx="2" fill="#1c78d8"/><rect x="565" y="140" width="25" height="10" rx="2" fill="#1c78d8"/><rect x="594" y="140" width="25" height="10" rx="2" fill="#1c78d8"/><rect x="623" y="140" width="25" height="10" rx="2" fill="#1c78d8"/><rect x="652" y="140" width="25" height="10" rx="2" fill="#1c78d8"/><rect x="681" y="140" width="25" height="10" rx="2" fill="#1c78d8"/><rect x="710" y="140" width="25" height="10" rx="2" fill="#1c78d8"/><rect x="739" y="140" width="25" height="10" rx="2" fill="#1c78d8"/><rect x="768" y="140" width="25" height="10" rx="2" fill="#1c78d8"/><rect x="797" y="140" width="25" height="10" rx="2" fill="#1c78d8"/><rect x="826" y="140" width="25" height="10" rx="2" fill="#1c78d8"/><rect x="855" y="140" width="25" height="10" rx="2" fill="#1c78d8"/><rect x="420" y="153" width="25" height="10" rx="2" fill="#1c78d8"/><rect x="449" y="153" width="25" height="10" rx="2" fill="#1c78d8"/><rect x="478" y="153" width="25" height="10" rx="2" fill="#1c78d8"/><rect x="507" y="153" width="25" height="10" rx="2" fill="#1c78d8"/><rect x="536" y="153" width="25" height="10" rx="2" fill="#1c78d8"/><rect x="565" y="153" width="25" height="10" rx="2" fill="#1c78d8"/><rect x="594" y="153" width="25" height="10" rx="2" fill="#1c78d8"/><rect x="623" y="153" width="25" height="10" rx="2" fill="#1c78d8"/><rect x="652" y="153" width="25" height="10" rx="2" fill="#1c78d8"/><rect x="681" y="153" width="25" height="10" rx="2" fill="#1c78d8"/><rect x="710" y="153" width="25" height="10" rx="2" fill="#1c78d8"/><rect x="739" y="153" width="25" height="10" rx="2" fill="#1c78d8"/><rect x="768" y="153" width="25" height="10" rx="2" fill="#1c78d8"/><rect x="797" y="153" width="25" height="10" rx="2" fill="#1c78d8"/><rect x="826" y="153" width="25" height="10" rx="2" fill="#1c78d8"/><rect x="855" y="153" width="25" height="10" rx="2" fill="#1c78d8"/><rect x="420" y="166" width="25" height="10" rx="2" fill="#1c78d8"/><rect x="449" y="166" width="25" height="10" rx="2" fill="#1c78d8"/><rect x="478" y="166" width="25" height="10" rx="2" fill="#1c78d8"/><rect x="507" y="166" width="25" height="10" rx="2" fill="#1c78d8"/><rect x="536" y="166" width="25" height="10" rx="2" fill="#1c78d8"/><rect x="565" y="166" width="25" height="10" rx="2" fill="#1c78d8"/><rect x="594" y="166" width="25" height="10" rx="2" fill="#1c78d8"/><rect x="623" y="166" width="25" height="10" rx="2" fill="#1c78d8"/><rect x="652" y="166" width="25" height="10" rx="2" fill="#1c78d8"/><rect x="681" y="166" width="25" height="10" rx="2" fill="#1c78d8"/><rect x="710" y="166" width="25" height="10" rx="2" fill="#1c78d8"/><rect x="739" y="166" width="25" height="10" rx="2" fill="#1c78d8"/><rect x="768" y="166" width="25" height="10" rx="2" fill="#1c78d8"/><rect x="797" y="166" width="25" height="10" rx="2" fill="#1c78d8"/><rect x="826" y="166" width="25" height="10" rx="2" fill="#1c78d8"/><rect x="855" y="166" width="25" height="10" rx="2" fill="#1c78d8"/><rect x="420" y="179" width="25" height="10" rx="2" fill="#1c78d8"/><rect x="449" y="179" width="25" height="10" rx="2" fill="#1c78d8"/><rect x="478" y="179" width="25" height="10" rx="2" fill="#1c78d8"/><rect x="507" y="179" width="25" height="10" rx="2" fill="#1c78d8"/><rect x="536" y="179" width="25" height="10" rx="2" fill="#1c78d8"/><rect x="565" y="179" width="25" height="10" rx="2" fill="#1c78d8"/><rect x="594" y="179" width="25" height="10" rx="2" fill="#1c78d8"/><rect x="623" y="179" width="25" height="10" rx="2" fill="#1c78d8"/><rect x="652" y="179" width="25" height="10" rx="2" fill="#1c78d8"/><rect x="681" y="179" width="25" height="10" rx="2" fill="#1c78d8"/><rect x="710" y="179" width="25" height="10" rx="2" fill="#1c78d8"/><rect x="739" y="179" width="25" height="10" rx="2" fill="#1c78d8"/><rect x="768" y="179" width="25" height="10" rx="2" fill="#1c78d8"/><rect x="797" y="179" width="25" height="10" rx="2" fill="#1c78d8"/><rect x="826" y="179" width="25" height="10" rx="2" fill="#1c78d8"/><rect x="855" y="179" width="25" height="10" rx="2" fill="#1c78d8"/><rect x="420" y="192" width="25" height="10" rx="2" fill="#1c78d8"/><rect x="449" y="192" width="25" height="10" rx="2" fill="#1c78d8"/><rect x="478" y="192" width="25" height="10" rx="2" fill="#1c78d8"/><rect x="507" y="192" width="25" height="10" rx="2" fill="#1c78d8"/><rect x="536" y="192" width="25" height="10" rx="2" fill="#1c78d8"/><rect x="565" y="192" width="25" height="10" rx="2" fill="#1c78d8"/><rect x="594" y="192" width="25" height="10" rx="2" fill="#1c78d8"/><rect x="623" y="192" width="25" height="10" rx="2" fill="#1c78d8"/><rect x="652" y="192" width="25" height="10" rx="2" fill="#1c78d8"/><rect x="681" y="192" width="25" height="10" rx="2" fill="#1c78d8"/><rect x="710" y="192" width="25" height="10" rx="2" fill="#1c78d8"/><rect x="739" y="192" width="25" height="10" rx="2" fill="#1c78d8"/><rect x="768" y="192" width="25" height="10" rx="2" fill="#1c78d8"/><rect x="797" y="192" width="25" height="10" rx="2" fill="#1c78d8"/><rect x="826" y="192" width="25" height="10" rx="2" fill="#1c78d8"/><rect x="855" y="192" width="25" height="10" rx="2" fill="#1c78d8"/><rect x="420" y="205" width="25" height="10" rx="2" fill="#1c78d8"/><rect x="449" y="205" width="25" height="10" rx="2" fill="#1c78d8"/><rect x="478" y="205" width="25" height="10" rx="2" fill="#1c78d8"/><rect x="507" y="205" width="25" height="10" rx="2" fill="#1c78d8"/><rect x="536" y="205" width="25" height="10" rx="2" fill="#1c78d8"/><rect x="565" y="205" width="25" height="10" rx="2" fill="#1c78d8"/><rect x="594" y="205" width="25" height="10" rx="2" fill="#1c78d8"/><rect x="623" y="205" width="25" height="10" rx="2" fill="#1c78d8"/><rect x="652" y="205" width="25" height="10" rx="2" fill="#1c78d8"/><rect x="681" y="205" width="25" height="10" rx="2" fill="#1c78d8"/><rect x="710" y="205" width="25" height="10" rx="2" fill="#1c78d8"/><rect x="739" y="205" width="25" height="10" rx="2" fill="#1c78d8"/><rect x="768" y="205" width="25" height="10" rx="2" fill="#1c78d8"/><rect x="797" y="205" width="25" height="10" rx="2" fill="#1c78d8"/><rect x="826" y="205" width="25" height="10" rx="2" fill="#1c78d8"/><rect x="855" y="205" width="25" height="10" rx="2" fill="#1c78d8"/><rect x="420" y="218" width="25" height="10" rx="2" fill="#1c78d8"/><rect x="449" y="218" width="25" height="10" rx="2" fill="#1c78d8"/><rect x="478" y="218" width="25" height="10" rx="2" fill="#1c78d8"/><rect x="507" y="218" width="25" height="10" rx="2" fill="#1c78d8"/><rect x="536" y="218" width="25" height="10" rx="2" fill="#1c78d8"/><rect x="565" y="218" width="25" height="10" rx="2" fill="#1c78d8"/><rect x="594" y="218" width="25" height="10" rx="2" fill="#1c78d8"/><rect x="623" y="218" width="25" height="10" rx="2" fill="#1c78d8"/><rect x="652" y="218" width="25" height="10" rx="2" fill="#1c78d8"/><rect x="681" y="218" width="25" height="10" rx="2" fill="#1c78d8"/><rect x="710" y="218" width="25" height="10" rx="2" fill="#1c78d8"/><rect x="739" y="218" width="25" height="10" rx="2" fill="#1c78d8"/><rect x="768" y="218" width="25" height="10" rx="2" fill="#1c78d8"/><rect x="797" y="218" width="25" height="10" rx="2" fill="#1c78d8"/><rect x="826" y="218" width="25" height="10" rx="2" fill="#1c78d8"/><rect x="855" y="218" width="25" height="10" rx="2" fill="#1c78d8"/><rect x="420" y="231" width="25" height="10" rx="2" fill="#1c78d8"/><rect x="449" y="231" width="25" height="10" rx="2" fill="#1c78d8"/><rect x="478" y="231" width="25" height="10" rx="2" fill="#1c78d8"/><rect x="507" y="231" width="25" height="10" rx="2" fill="#1c78d8"/><rect x="536" y="231" width="25" height="10" rx="2" fill="#1c78d8"/><rect x="565" y="231" width="25" height="10" rx="2" fill="#1c78d8"/><rect x="594" y="231" width="25" height="10" rx="2" fill="#1c78d8"/><rect x="623" y="231" width="25" height="10" rx="2" fill="#eeeeee"/><rect x="652" y="231" width="25" height="10" rx="2" fill="#eeeeee"/><rect x="681" y="231" width="25" height="10" rx="2" fill="#eeeeee"/><rect x="710" y="231" width="25" height="10" rx="2" fill="#eeeeee"/><rect x="739" y="231" width="25" height="10" rx="2" fill="#eeeeee"/><rect x="768" y="231" width="25" height="10" rx="2" fill="#eeeeee"/><rect x="797" y="231" width="25" height="10" rx="2" fill="#eeeeee"/><rect x="826" y="231" width="25" height="10" rx="2" fill="#eeeeee"/><rect x="855" y="231" width="25" height="10" rx="2" fill="#eeeeee"/><text x="420" y="262" font-family="-apple-system,BlinkMacSystemFont,Segoe UI,Helvetica,Arial,sans-serif" font-size="11.5" font-weight="700" fill="#151515" text-anchor="start">Waiting queue, vllm:num_requests_waiting</text><rect x="420" y="270" width="14" height="10" rx="2" fill="#f0a0a0"/><rect x="438" y="270" width="14" height="10" rx="2" fill="#f0a0a0"/><rect x="456" y="270" width="14" height="10" rx="2" fill="#f0a0a0"/><rect x="474" y="270" width="14" height="10" rx="2" fill="#f0a0a0"/><rect x="492" y="270" width="14" height="10" rx="2" fill="#f0a0a0"/><rect x="510" y="270" width="14" height="10" rx="2" fill="#f0a0a0"/><rect x="528" y="270" width="14" height="10" rx="2" fill="#f0a0a0"/><rect x="546" y="270" width="14" height="10" rx="2" fill="#f0a0a0"/><rect x="564" y="270" width="14" height="10" rx="2" fill="#f0a0a0"/><rect x="582" y="270" width="14" height="10" rx="2" fill="#f0a0a0"/><rect x="600" y="270" width="14" height="10" rx="2" fill="#f0a0a0"/><rect x="618" y="270" width="14" height="10" rx="2" fill="#f0a0a0"/><rect x="636" y="270" width="14" height="10" rx="2" fill="#f0a0a0"/><rect x="654" y="270" width="14" height="10" rx="2" fill="#f0a0a0"/><rect x="672" y="270" width="14" height="10" rx="2" fill="#f0a0a0"/><rect x="690" y="270" width="14" height="10" rx="2" fill="#f0a0a0"/><rect x="708" y="270" width="14" height="10" rx="2" fill="#f0a0a0"/><rect x="726" y="270" width="14" height="10" rx="2" fill="#f0a0a0"/><rect x="744" y="270" width="14" height="10" rx="2" fill="#f0a0a0"/><rect x="762" y="270" width="14" height="10" rx="2" fill="#f0a0a0"/><rect x="780" y="270" width="14" height="10" rx="2" fill="#f0a0a0"/><rect x="798" y="270" width="14" height="10" rx="2" fill="#f0a0a0"/><rect x="816" y="270" width="14" height="10" rx="2" fill="#f0a0a0"/><rect x="834" y="270" width="14" height="10" rx="2" fill="#f0a0a0"/><rect x="852" y="270" width="14" height="10" rx="2" fill="#f0a0a0"/><rect x="870" y="270" width="14" height="10" rx="2" fill="#f0a0a0"/><text x="420" y="296" font-family="-apple-system,BlinkMacSystemFont,Segoe UI,Helvetica,Arial,sans-serif" font-size="10" font-weight="400" fill="#8a8a8a" text-anchor="start">26 dispatched, not yet in a slot</text><text x="916" y="212" font-family="-apple-system,BlinkMacSystemFont,Segoe UI,Helvetica,Arial,sans-serif" font-size="12" font-weight="400" fill="#8a8a8a" text-anchor="start">&#8594; output</text><line x1="20" y1="322" x2="1180" y2="322" stroke="#e6e6e6"/><text x="20" y="336" font-family="-apple-system,BlinkMacSystemFont,Segoe UI,Helvetica,Arial,sans-serif" font-size="12" font-weight="700" fill="#151515" text-anchor="start">A slot is one request, not one token</text><text x="20" y="358" font-family="-apple-system,BlinkMacSystemFont,Segoe UI,Helvetica,Arial,sans-serif" font-size="11" font-weight="400" fill="#4a4a4a" text-anchor="start">max_num_seqs caps how many requests vLLM runs at</text><text x="20" y="375" font-family="-apple-system,BlinkMacSystemFont,Segoe UI,Helvetica,Arial,sans-serif" font-size="11" font-weight="400" fill="#4a4a4a" text-anchor="start">once. A request holds its slot from prefill until</text><text x="20" y="392" font-family="-apple-system,BlinkMacSystemFont,Segoe UI,Helvetica,Arial,sans-serif" font-size="11" font-weight="400" fill="#4a4a4a" text-anchor="start">its last token. Every decode step advances all 128</text><text x="20" y="409" font-family="-apple-system,BlinkMacSystemFont,Segoe UI,Helvetica,Arial,sans-serif" font-size="11" font-weight="400" fill="#4a4a4a" text-anchor="start">sequences, so a fuller batch makes every token</text><text x="20" y="426" font-family="-apple-system,BlinkMacSystemFont,Segoe UI,Helvetica,Arial,sans-serif" font-size="11" font-weight="400" fill="#4a4a4a" text-anchor="start">slower for everyone in it.</text><text x="420" y="336" font-family="-apple-system,BlinkMacSystemFont,Segoe UI,Helvetica,Arial,sans-serif" font-size="12" font-weight="700" fill="#151515" text-anchor="start">The waiting queue is downstream of the gate</text><text x="420" y="358" font-family="-apple-system,BlinkMacSystemFont,Segoe UI,Helvetica,Arial,sans-serif" font-size="11" font-weight="400" fill="#4a4a4a" text-anchor="start">These requests were already released by the endpoint</text><text x="420" y="375" font-family="-apple-system,BlinkMacSystemFont,Segoe UI,Helvetica,Arial,sans-serif" font-size="11" font-weight="400" fill="#4a4a4a" text-anchor="start">picker. They are waiting for a slot to free. This is</text><text x="420" y="392" font-family="-apple-system,BlinkMacSystemFont,Segoe UI,Helvetica,Arial,sans-serif" font-size="11" font-weight="400" fill="#4a4a4a" text-anchor="start">the number the gate reads back, which is why the</text><text x="420" y="409" font-family="-apple-system,BlinkMacSystemFont,Segoe UI,Helvetica,Arial,sans-serif" font-size="11" font-weight="400" fill="#4a4a4a" text-anchor="start">gate is reactive rather than predictive.</text><text x="820" y="336" font-family="-apple-system,BlinkMacSystemFont,Segoe UI,Helvetica,Arial,sans-serif" font-size="12" font-weight="700" fill="#151515" text-anchor="start">Queue depth threshold is a flow control setting</text><text x="820" y="358" font-family="-apple-system,BlinkMacSystemFont,Segoe UI,Helvetica,Arial,sans-serif" font-size="11" font-weight="400" fill="#4a4a4a" text-anchor="start">It configures the endpoint picker, not vLLM. The</text><text x="820" y="375" font-family="-apple-system,BlinkMacSystemFont,Segoe UI,Helvetica,Arial,sans-serif" font-size="11" font-weight="400" fill="#4a4a4a" text-anchor="start">score is waiting divided by threshold, against KV</text><text x="820" y="392" font-family="-apple-system,BlinkMacSystemFont,Segoe UI,Helvetica,Arial,sans-serif" font-size="11" font-weight="400" fill="#4a4a4a" text-anchor="start">used divided by the KV limit, whichever is larger,</text><text x="820" y="409" font-family="-apple-system,BlinkMacSystemFont,Segoe UI,Helvetica,Arial,sans-serif" font-size="11" font-weight="400" fill="#4a4a4a" text-anchor="start">averaged across pods. At 1.0 the gate closes. With</text><text x="820" y="426" font-family="-apple-system,BlinkMacSystemFont,Segoe UI,Helvetica,Arial,sans-serif" font-size="11" font-weight="400" fill="#4a4a4a" text-anchor="start">one pod there is nothing to average, so that pod is</text><text x="820" y="443" font-family="-apple-system,BlinkMacSystemFont,Segoe UI,Helvetica,Arial,sans-serif" font-size="11" font-weight="400" fill="#4a4a4a" text-anchor="start">the pool.</text><text x="20" y="524" font-family="-apple-system,BlinkMacSystemFont,Segoe UI,Helvetica,Arial,sans-serif" font-size="10.5" font-weight="400" fill="#8a8a8a" text-anchor="start">Threshold 1 trips the gate on the first waiting request. Threshold 4 tolerates four. Neither one is a cap on how long the waiting queue may grow.</text></svg>