<svg class="line-chart" viewBox="0 0 560 300" role="img" aria-label="Scenario 1: rolling p95 TTFT for both tenants stays near 120 ms while they consolidate onto one GPU" xmlns="http://www.w3.org/2000/svg"><text x="56" y="20" font-size="14" font-weight="700" fill="#151515">Rolling p95 TTFT while the pool consolidates</text><text x="56" y="36" font-size="11" fill="#898781">30 s window. 300 ms is a general interactive target, not a customer-set SLA.</text><line x1="56" y1="260.0" x2="544" y2="260.0" stroke="#ececea" stroke-width="1"/><text x="48" y="264.0" text-anchor="end" font-size="11" fill="#898781">0 ms</text><line x1="56" y1="204.6" x2="544" y2="204.6" stroke="#ececea" stroke-width="1"/><text x="48" y="208.6" text-anchor="end" font-size="11" fill="#898781">100 ms</text><line x1="56" y1="149.1" x2="544" y2="149.1" stroke="#ececea" stroke-width="1"/><text x="48" y="153.1" text-anchor="end" font-size="11" fill="#898781">200 ms</text><line x1="56" y1="93.7" x2="544" y2="93.7" stroke="#ececea" stroke-width="1"/><text x="48" y="97.7" text-anchor="end" font-size="11" fill="#898781">300 ms</text><line x1="308.1" y1="70" x2="308.1" y2="260" stroke="#c9c8c2" stroke-width="1"/><text x="314.1" y="250" font-size="11" fill="#898781">tenant B joins</text><polygon fill="#1f8a5f" fill-opacity="0.08" points="80.4,260.0 80.4,213.6 88.5,213.6 96.7,213.7 104.8,218.8 112.9,218.8 121.1,218.8 129.2,218.8 137.3,218.8 145.5,219.5 153.6,219.5 161.7,219.0 169.9,218.9 178.0,218.9 186.1,218.9 194.3,218.9 202.4,219.0 210.5,220.0 218.7,220.0 226.8,217.8 234.9,217.8 243.1,216.4 251.2,216.3 259.3,216.3 267.5,216.4 275.6,216.3 283.7,216.3 291.9,196.9 300.0,196.9 308.1,196.9 316.3,196.8 324.4,196.8 332.5,196.8 340.7,193.2 348.8,196.9 356.9,196.9 365.1,196.9 373.2,190.6 381.3,189.9 389.5,189.9 397.6,189.9 405.7,189.9 413.9,196.2 422.0,196.3 430.1,196.3 438.3,195.4 446.4,195.2 454.5,195.2 462.7,195.2 470.8,195.2 478.9,195.2 487.1,197.3 495.2,197.3 503.3,194.7 511.5,194.7 519.6,194.9 519.6,260.0"/><polyline fill="none" stroke="#1f8a5f" stroke-width="2.5" stroke-linejoin="round" stroke-linecap="round" points="80.4,213.6 88.5,213.6 96.7,213.7 104.8,218.8 112.9,218.8 121.1,218.8 129.2,218.8 137.3,218.8 145.5,219.5 153.6,219.5 161.7,219.0 169.9,218.9 178.0,218.9 186.1,218.9 194.3,218.9 202.4,219.0 210.5,220.0 218.7,220.0 226.8,217.8 234.9,217.8 243.1,216.4 251.2,216.3 259.3,216.3 267.5,216.4 275.6,216.3 283.7,216.3 291.9,196.9 300.0,196.9 308.1,196.9 316.3,196.8 324.4,196.8 332.5,196.8 340.7,193.2 348.8,196.9 356.9,196.9 365.1,196.9 373.2,190.6 381.3,189.9 389.5,189.9 397.6,189.9 405.7,189.9 413.9,196.2 422.0,196.3 430.1,196.3 438.3,195.4 446.4,195.2 454.5,195.2 462.7,195.2 470.8,195.2 478.9,195.2 487.1,197.3 495.2,197.3 503.3,194.7 511.5,194.7 519.6,194.9"/><circle cx="519.6" cy="194.9" r="4.5" fill="#1f8a5f" stroke="#ffffff" stroke-width="2"/><polygon fill="#1c78d8" fill-opacity="0.08" points="332.5,260.0 332.5,191.0 340.7,190.8 348.8,190.8 356.9,190.8 365.1,190.8 373.2,190.5 381.3,190.4 389.5,190.4 397.6,190.4 405.7,190.4 413.9,190.4 422.0,190.5 430.1,190.5 438.3,190.6 446.4,190.5 454.5,190.5 462.7,192.1 470.8,192.1 478.9,192.2 487.1,193.9 495.2,193.9 503.3,192.4 511.5,192.4 519.6,192.5 519.6,260.0"/><polyline fill="none" stroke="#1c78d8" stroke-width="2.5" stroke-linejoin="round" stroke-linecap="round" points="332.5,191.0 340.7,190.8 348.8,190.8 356.9,190.8 365.1,190.8 373.2,190.5 381.3,190.4 389.5,190.4 397.6,190.4 405.7,190.4 413.9,190.4 422.0,190.5 430.1,190.5 438.3,190.6 446.4,190.5 454.5,190.5 462.7,192.1 470.8,192.1 478.9,192.2 487.1,193.9 495.2,193.9 503.3,192.4 511.5,192.4 519.6,192.5"/><circle cx="519.6" cy="192.5" r="4.5" fill="#1c78d8" stroke="#ffffff" stroke-width="2"/><text x="544" y="87.7" text-anchor="end" font-size="11" fill="#898781">300 ms interactive target</text><line x1="56" y1="260" x2="544" y2="260" stroke="#c9c8c2" stroke-width="1"/><text x="56.0" y="278" text-anchor="middle" font-size="11" fill="#898781">0</text><text x="153.6" y="278" text-anchor="middle" font-size="11" fill="#898781">60</text><text x="251.2" y="278" text-anchor="middle" font-size="11" fill="#898781">120</text><text x="348.8" y="278" text-anchor="middle" font-size="11" fill="#898781">180</text><text x="446.4" y="278" text-anchor="middle" font-size="11" fill="#898781">240</text><text x="544.0" y="278" text-anchor="middle" font-size="11" fill="#898781">300</text><text x="300" y="294" text-anchor="middle" font-size="11" fill="#898781">elapsed seconds</text><circle cx="468" cy="52" r="4.5" fill="#1c78d8" stroke="#ffffff" stroke-width="2"/><text x="477" y="56" font-size="11" font-weight="600" fill="#383838">Tenant B</text><circle cx="387" cy="52" r="4.5" fill="#1f8a5f" stroke="#ffffff" stroke-width="2"/><text x="396" y="56" font-size="11" font-weight="600" fill="#383838">Tenant A</text></svg>