<svg id="batch-retry-success" xmlns="http://www.w3.org/2000/svg" width="900" height="360" viewBox="0 0 900 360" role="img" aria-label="Two matched comparisons answer different questions. Reserved capacity reduced Realtime p95 time to first token from 561 to 341 milliseconds, a 220 millisecond or 39% reduction. Holding reserved capacity constant, adding eviction and retry increased median Batch completions in a 300-second run from 1,648 to 1,798, a gain of 150 or 9%. All 38 evicted Batch requests completed after retry with 0 duplicate results." style="font-family: Inter, &quot;Red Hat Text&quot;, system-ui, -apple-system, &quot;Segoe UI&quot;, sans-serif; background: rgb(255, 255, 255);"><rect width="900" height="360" fill="#ffffff"/><text x="250" y="20" text-anchor="middle" fill="#62666b" font-size="9.2" font-weight="900"><tspan x="250" dy="0">WHY RESERVE CAPACITY?</tspan></text><text x="250" y="39" text-anchor="middle" fill="#151515" font-size="13.2" font-weight="900"><tspan x="250" dy="0">Protect Realtime latency</tspan></text><line x1="74" x2="426" y1="232" y2="232" stroke="#dedede" stroke-width="0.8"/><text x="66" y="236" text-anchor="end" fill="#62666b" font-size="8.8" font-weight="700"><tspan x="66" dy="0">0</tspan></text><line x1="74" x2="426" y1="187" y2="187" stroke="#dedede" stroke-width="0.8"/><text x="66" y="191" text-anchor="end" fill="#62666b" font-size="8.8" font-weight="700"><tspan x="66" dy="0">150</tspan></text><line x1="74" x2="426" y1="142" y2="142" stroke="#dedede" stroke-width="0.8"/><text x="66" y="146" text-anchor="end" fill="#62666b" font-size="8.8" font-weight="700"><tspan x="66" dy="0">300</tspan></text><line x1="74" x2="426" y1="97" y2="97" stroke="#dedede" stroke-width="0.8"/><text x="66" y="101" text-anchor="end" fill="#62666b" font-size="8.8" font-weight="700"><tspan x="66" dy="0">450</tspan></text><line x1="74" x2="426" y1="52" y2="52" stroke="#dedede" stroke-width="0.8"/><text x="66" y="56" text-anchor="end" fill="#62666b" font-size="8.8" font-weight="700"><tspan x="66" dy="0">600</tspan></text><rect x="165.63636363636363" y="63.82693743146957" width="68.54545454545456" height="168.17306256853044" rx="4" fill="#c9190b"/><text x="199.9090909090909" y="54.82693743146957" text-anchor="middle" fill="#c9190b" font-size="10.8" font-weight="900"><tspan x="199.9090909090909" dy="0">561 ms</tspan></text><text x="199.9090909090909" y="252" text-anchor="middle" fill="#c9190b" font-size="8.8" font-weight="850"><tspan x="199.9090909090909" dy="0">Batch ·</tspan><tspan x="199.9090909090909" dy="11">no controls</tspan></text><rect x="283.8181818181818" y="129.63489998877048" width="68.54545454545456" height="102.36510001122952" rx="4" fill="#087f5b"/><text x="318.0909090909091" y="120.63489998877048" text-anchor="middle" fill="#087f5b" font-size="10.8" font-weight="900"><tspan x="318.0909090909091" dy="0">341 ms</tspan></text><text x="318.0909090909091" y="252" text-anchor="middle" fill="#087f5b" font-size="8.8" font-weight="850"><tspan x="318.0909090909091" dy="0">Batch ·</tspan><tspan x="318.0909090909091" dy="11">reserved capacity</tspan></text><text transform="translate(26,142) rotate(-90)" text-anchor="middle" fill="#62666b" font-size="9.2" font-weight="800">p95 TTFT (ms)</text><text x="702" y="20" text-anchor="middle" fill="#62666b" font-size="9.2" font-weight="900"><tspan x="702" dy="0">WHY ADD EVICTION + RETRY?</tspan></text><text x="702" y="39" text-anchor="middle" fill="#151515" font-size="13.2" font-weight="900"><tspan x="702" dy="0">Recover Batch completions</tspan></text><line x1="526" x2="878" y1="232" y2="232" stroke="#dedede" stroke-width="0.8"/><text x="518" y="236" text-anchor="end" fill="#62666b" font-size="8.8" font-weight="700"><tspan x="518" dy="0">1,000</tspan></text><line x1="526" x2="878" y1="187" y2="187" stroke="#dedede" stroke-width="0.8"/><text x="518" y="191" text-anchor="end" fill="#62666b" font-size="8.8" font-weight="700"><tspan x="518" dy="0">1,250</tspan></text><line x1="526" x2="878" y1="142" y2="142" stroke="#dedede" stroke-width="0.8"/><text x="518" y="146" text-anchor="end" fill="#62666b" font-size="8.8" font-weight="700"><tspan x="518" dy="0">1,500</tspan></text><line x1="526" x2="878" y1="97" y2="97" stroke="#dedede" stroke-width="0.8"/><text x="518" y="101" text-anchor="end" fill="#62666b" font-size="8.8" font-weight="700"><tspan x="518" dy="0">1,750</tspan></text><line x1="526" x2="878" y1="52" y2="52" stroke="#dedede" stroke-width="0.8"/><text x="518" y="56" text-anchor="end" fill="#62666b" font-size="8.8" font-weight="700"><tspan x="518" dy="0">2,000</tspan></text><rect x="617.6363636363636" y="115.36" width="68.54545454545456" height="116.64" rx="4" fill="#087f5b"/><text x="651.9090909090909" y="106.36" text-anchor="middle" fill="#087f5b" font-size="10.8" font-weight="900"><tspan x="651.9090909090909" dy="0">1,648</tspan></text><text x="651.9090909090909" y="252" text-anchor="middle" fill="#087f5b" font-size="8.8" font-weight="850"><tspan x="651.9090909090909" dy="0">Reserved</tspan><tspan x="651.9090909090909" dy="11">capacity</tspan></text><rect x="735.8181818181818" y="88.35999999999999" width="68.54545454545456" height="143.64000000000001" rx="4" fill="#6f42c1"/><text x="770.090909090909" y="79.35999999999999" text-anchor="middle" fill="#6f42c1" font-size="10.8" font-weight="900"><tspan x="770.090909090909" dy="0">1,798</tspan></text><text x="770.090909090909" y="252" text-anchor="middle" fill="#6f42c1" font-size="8.8" font-weight="850"><tspan x="770.090909090909" dy="0">Reserved +</tspan><tspan x="770.090909090909" dy="11">eviction/retry</tspan></text><text transform="translate(478,142) rotate(-90)" text-anchor="middle" fill="#62666b" font-size="9.2" font-weight="800">Completions in 300 s</text><path d="M521,227 l5,4 l-5,4 l5,4" fill="none" stroke="#62666b" stroke-width="1.4"/><line x1="460" x2="460" y1="10" y2="276" stroke="#dedede" stroke-width="1.2"/><text x="450" y="286" text-anchor="middle" fill="#151515" font-size="10.2" font-weight="900"><tspan x="450" dy="0">Eviction requires recovery</tspan></text><defs><marker id="retry-value-new" viewBox="0 0 10 10" refX="8.3" refY="5" markerWidth="4.2" markerHeight="4.2" orient="auto-start-reverse" overflow="visible"><path d="M 0 0 L 10 5 L 0 10 z" fill="#6a737d"/></marker></defs><rect x="50" y="300" width="166" height="42" rx="5" fill="#fff8ee" stroke="#c56a00" stroke-width="1.35"/><text x="133" y="315" text-anchor="middle" fill="#151515" font-size="10.2" font-weight="820"><tspan x="133" dy="0">Batch running</tspan></text><text x="133" y="339" text-anchor="middle" fill="#62666b" font-size="8.2" font-weight="650"><tspan x="133" dy="0">in vLLM</tspan></text><path d="M216,321 L252,321" fill="none" stroke="#6a737d" stroke-width="1.6" stroke-linejoin="round" stroke-linecap="round" marker-end="url(#retry-value-new)"/><rect x="260" y="300" width="166" height="42" rx="5" fill="#fff7f6" stroke="#c9190b" stroke-width="1.35"/><text x="343" y="315" text-anchor="middle" fill="#151515" font-size="10.2" font-weight="820"><tspan x="343" dy="0">HTTP 429</tspan></text><text x="343" y="339" text-anchor="middle" fill="#62666b" font-size="8.2" font-weight="650"><tspan x="343" dy="0">request evicted</tspan></text><path d="M426,321 L462,321" fill="none" stroke="#6a737d" stroke-width="1.6" stroke-linejoin="round" stroke-linecap="round" marker-end="url(#retry-value-new)"/><rect x="470" y="300" width="166" height="42" rx="5" fill="#faf6ff" stroke="#6f42c1" stroke-width="1.35"/><text x="553" y="315" text-anchor="middle" fill="#151515" font-size="10.2" font-weight="820"><tspan x="553" dy="0">Retry queued</tspan></text><text x="553" y="339" text-anchor="middle" fill="#62666b" font-size="8.2" font-weight="650"><tspan x="553" dy="0">backoff</tspan></text><path d="M636,321 L672,321" fill="none" stroke="#6a737d" stroke-width="1.6" stroke-linejoin="round" stroke-linecap="round" marker-end="url(#retry-value-new)"/><rect x="680" y="300" width="166" height="42" rx="5" fill="#f1faf6" stroke="#087f5b" stroke-width="1.35"/><text x="763" y="315" text-anchor="middle" fill="#151515" font-size="10.2" font-weight="820"><tspan x="763" dy="0">New attempt</tspan></text><text x="763" y="339" text-anchor="middle" fill="#62666b" font-size="8.2" font-weight="650"><tspan x="763" dy="0">same request</tspan></text></svg>
